<mxfile host="app.diagrams.net" modified="2023-06-26T14:07:20.882Z" agent="Mozilla/5.0 (Windows NT 10.0; Win64; x64) AppleWebKit/537.36 (KHTML, like Gecko) Chrome/114.0.0.0 Safari/537.36" etag="e9RbTDtF9DfahZChJzQ4" version="21.5.0" type="device">
  <diagram name="Page-1" id="p303lIGGlOYA21cUYjSG">
    <mxGraphModel dx="1969" dy="936" grid="1" gridSize="10" guides="1" tooltips="1" connect="1" arrows="1" fold="1" page="1" pageScale="1" pageWidth="827" pageHeight="1169" background="#CCFF99" math="0" shadow="1">
      <root>
        <mxCell id="0" />
        <mxCell id="1" parent="0" />
        <mxCell id="zwHRF4nlIxKaCYxQ__KP-3" value="&lt;b&gt;&lt;u&gt;Logo&lt;/u&gt;&lt;/b&gt;" style="ellipse;whiteSpace=wrap;html=1;fillColor=#FFFFFF;" vertex="1" parent="1">
          <mxGeometry x="330" y="40" width="140" height="80" as="geometry" />
        </mxCell>
        <mxCell id="zwHRF4nlIxKaCYxQ__KP-6" value="" style="rounded=0;whiteSpace=wrap;html=1;" vertex="1" parent="1">
          <mxGeometry x="40" y="200" width="720" height="60" as="geometry" />
        </mxCell>
        <mxCell id="zwHRF4nlIxKaCYxQ__KP-7" value="Womens" style="rounded=0;whiteSpace=wrap;html=1;" vertex="1" parent="1">
          <mxGeometry x="40" y="200" width="120" height="60" as="geometry" />
        </mxCell>
        <mxCell id="zwHRF4nlIxKaCYxQ__KP-8" value="Mens" style="rounded=0;whiteSpace=wrap;html=1;" vertex="1" parent="1">
          <mxGeometry x="160" y="200" width="120" height="60" as="geometry" />
        </mxCell>
        <mxCell id="zwHRF4nlIxKaCYxQ__KP-9" value="Childrens" style="rounded=0;whiteSpace=wrap;html=1;" vertex="1" parent="1">
          <mxGeometry x="280" y="200" width="120" height="60" as="geometry" />
        </mxCell>
        <mxCell id="zwHRF4nlIxKaCYxQ__KP-10" value="Babies" style="rounded=0;whiteSpace=wrap;html=1;" vertex="1" parent="1">
          <mxGeometry x="400" y="200" width="120" height="60" as="geometry" />
        </mxCell>
        <mxCell id="zwHRF4nlIxKaCYxQ__KP-11" value="Accessories&amp;nbsp;" style="rounded=0;whiteSpace=wrap;html=1;" vertex="1" parent="1">
          <mxGeometry x="520" y="200" width="120" height="60" as="geometry" />
        </mxCell>
        <mxCell id="zwHRF4nlIxKaCYxQ__KP-13" value="School" style="rounded=0;whiteSpace=wrap;html=1;" vertex="1" parent="1">
          <mxGeometry x="640" y="200" width="120" height="60" as="geometry" />
        </mxCell>
        <mxCell id="zwHRF4nlIxKaCYxQ__KP-14" value="Search Bar" style="rounded=1;whiteSpace=wrap;html=1;" vertex="1" parent="1">
          <mxGeometry x="500" y="45" width="240" height="70" as="geometry" />
        </mxCell>
        <mxCell id="zwHRF4nlIxKaCYxQ__KP-15" value="Most Popular Product with a sale on." style="rounded=0;whiteSpace=wrap;html=1;" vertex="1" parent="1">
          <mxGeometry x="40" y="310" width="720" height="200" as="geometry" />
        </mxCell>
        <mxCell id="zwHRF4nlIxKaCYxQ__KP-16" value="Shop Men&#39;s Sale" style="rounded=0;whiteSpace=wrap;html=1;" vertex="1" parent="1">
          <mxGeometry x="260" y="520" width="120" height="60" as="geometry" />
        </mxCell>
        <mxCell id="zwHRF4nlIxKaCYxQ__KP-17" value="Shop Children&#39;s Sale" style="rounded=0;whiteSpace=wrap;html=1;" vertex="1" parent="1">
          <mxGeometry x="430" y="520" width="120" height="60" as="geometry" />
        </mxCell>
        <mxCell id="zwHRF4nlIxKaCYxQ__KP-18" value="Shop Accessories Sale" style="rounded=0;whiteSpace=wrap;html=1;" vertex="1" parent="1">
          <mxGeometry x="600" y="520" width="130" height="60" as="geometry" />
        </mxCell>
        <mxCell id="zwHRF4nlIxKaCYxQ__KP-22" value="Shop Women&#39;s Sale" style="rounded=0;whiteSpace=wrap;html=1;" vertex="1" parent="1">
          <mxGeometry x="90" y="520" width="120" height="60" as="geometry" />
        </mxCell>
        <mxCell id="zwHRF4nlIxKaCYxQ__KP-24" value="Customer Service&lt;br style=&quot;border-color: var(--border-color);&quot;&gt;&lt;br&gt;&lt;br&gt;Help &amp;amp; FAQ&#39;S&lt;br style=&quot;border-color: var(--border-color);&quot;&gt;&lt;br&gt;&lt;br&gt;Contact Us&lt;br&gt;&lt;br&gt;" style="rounded=1;whiteSpace=wrap;html=1;" vertex="1" parent="1">
          <mxGeometry x="80" y="720" width="120" height="190" as="geometry" />
        </mxCell>
        <mxCell id="zwHRF4nlIxKaCYxQ__KP-25" value="Socials&lt;br&gt;&lt;br style=&quot;border-color: var(--border-color);&quot;&gt;&lt;br&gt;Face Book&lt;br style=&quot;border-color: var(--border-color);&quot;&gt;&lt;br&gt;&lt;br&gt;Twitter&lt;br&gt;&lt;br&gt;" style="rounded=1;whiteSpace=wrap;html=1;" vertex="1" parent="1">
          <mxGeometry x="259" y="720" width="120" height="190" as="geometry" />
        </mxCell>
        <mxCell id="zwHRF4nlIxKaCYxQ__KP-26" value="Inside Our Company&lt;br&gt;&lt;br&gt;&lt;br&gt;Suppliers&lt;br style=&quot;border-color: var(--border-color);&quot;&gt;&lt;br&gt;&lt;br&gt;About Us&lt;br&gt;&lt;br&gt;" style="rounded=1;whiteSpace=wrap;html=1;" vertex="1" parent="1">
          <mxGeometry x="430" y="720" width="120" height="190" as="geometry" />
        </mxCell>
        <mxCell id="zwHRF4nlIxKaCYxQ__KP-27" value="Product Care&lt;br&gt;&lt;br&gt;&lt;br&gt;Our Care Services&lt;br style=&quot;border-color: var(--border-color);&quot;&gt;&lt;br&gt;&lt;br&gt;Product Recall&lt;br&gt;&lt;br&gt;" style="rounded=1;whiteSpace=wrap;html=1;" vertex="1" parent="1">
          <mxGeometry x="600" y="720" width="120" height="190" as="geometry" />
        </mxCell>
        <mxCell id="zwHRF4nlIxKaCYxQ__KP-31" value="Home" style="rounded=1;whiteSpace=wrap;html=1;" vertex="1" parent="1">
          <mxGeometry x="60" y="45" width="240" height="70" as="geometry" />
        </mxCell>
      </root>
    </mxGraphModel>
  </diagram>
</mxfile>
